<?xml version="1.0" encoding="utf-8"?>
<!-- Generator: Adobe Illustrator 19.0.0, SVG Export Plug-In . SVG Version: 6.00 Build 0)  -->
<svg version="1.1" id="Слой_1" xmlns="http://www.w3.org/2000/svg" xmlns:xlink="http://www.w3.org/1999/xlink" x="0px" y="0px"
	 viewBox="0 0 80 40" style="enable-background:new 0 0 80 40;" xml:space="preserve">
<style type="text/css">
	.st0{fill:#555555;}
	.st1{fill:none;}
	.st2{fill:#FFFFFF;}
</style>
<g id="XMLID_17_">
	<path id="XMLID_1_" class="st0" d="M54.8,34.9H25.2c-8.2,0-14.9-6.7-14.9-14.9v0c0-8.2,6.7-14.9,14.9-14.9h29.5
		c8.2,0,14.9,6.7,14.9,14.9v0C69.6,28.2,62.9,34.9,54.8,34.9z"/>
	<circle id="XMLID_13_" class="st1" cx="54.6" cy="20" r="13.6"/>
	<circle id="XMLID_18_" class="st2" cx="25.5" cy="20" r="13.6"/>
	<g id="XMLID_3_">
		<g id="XMLID_4_">
			<path id="XMLID_8_" class="st2" d="M54.7,17.9c-1.6,0-2.8,1.2-2.8,2.8s1.2,2.8,2.8,2.8s2.8-1.2,2.8-2.8
				C57.5,19.1,56.3,17.9,54.7,17.9z M54.7,22.5c-1,0-1.8-0.8-1.8-1.8s0.8-1.8,1.8-1.8c1,0,1.8,0.8,1.8,1.8S55.8,22.5,54.7,22.5z"/>
			<path id="XMLID_5_" class="st2" d="M61.3,15.8h-2.2c-0.3,0-0.5-0.2-0.5-0.5v-0.2c0-0.7-0.6-1.4-1.4-1.4h-4.9
				c-0.7,0-1.4,0.6-1.4,1.4v0.2c0,0.3-0.2,0.5-0.5,0.5h-2.2c-0.7,0-1.4,0.6-1.4,1.4v7.6c0,0.7,0.6,1.4,1.4,1.4h12.9
				c0.7,0,1.4-0.6,1.5-1.4v-7.6C62.7,16.5,62,15.8,61.3,15.8L61.3,15.8z M61.7,24.8c0,0.3-0.2,0.5-0.5,0.5H48.3
				c-0.3,0-0.5-0.2-0.5-0.5v-7.6c0-0.3,0.2-0.5,0.5-0.5h2.1c0.7,0,1.4-0.6,1.4-1.4v-0.2c0-0.3,0.2-0.5,0.5-0.5h4.9
				c0.3,0,0.5,0.2,0.5,0.5v0.2c0,0.7,0.6,1.4,1.4,1.4h2.2c0.3,0,0.5,0.2,0.5,0.5L61.7,24.8L61.7,24.8z"/>
		</g>
	</g>
	<g id="XMLID_14_">
		<g id="XMLID_15_">
			<path id="XMLID_16_" class="st0" d="M31.8,24.3c-1.9-0.4-2.9-1.2-3.5-1.7c-0.4-0.4-0.6-0.7-0.7-0.9c0.1-0.1,0.2-0.2,0.3-0.3
				c1.6-1.8,1.3-4.9,1.3-5.2c-0.1-2.1-1.1-3.2-1.9-3.7c-0.9-0.6-1.9-0.6-2.3-0.6c0,0-0.1,0-0.1,0s-0.1,0-0.1,0
				c-0.4,0-1.3,0.1-2.3,0.6c-0.8,0.5-1.8,1.6-1.9,3.7c0,0.3-0.3,3.4,1.3,5.2c0.1,0.1,0.3,0.3,0.4,0.4c-0.1,0.4-0.8,1.5-4.1,2.4
				c-0.2,0-0.3,0.2-0.3,0.3c0,0.2,0,0.3,0.1,0.5l0,0c0.9,0.9,1.9,1.7,3.1,2.2c1.2,0.5,2.5,0.8,3.9,0.8c1.3,0,2.6-0.3,3.9-0.8
				c1.2-0.5,2.2-1.3,3.1-2.2c0.1-0.1,0.2-0.3,0.1-0.5C32.1,24.4,32,24.3,31.8,24.3z M21.7,16.4C21.7,16.3,21.7,16.3,21.7,16.4
				c0.1-3.2,2.5-3.4,3.2-3.4c0,0,0.1,0,0.1,0c0,0,0,0,0,0c0,0,0,0,0.1,0c0.7,0,3.1,0.2,3.2,3.4c0,0,0,0,0,0c0,0,0.3,2.9-1.1,4.5
				c-0.5,0.6-1.3,0.9-2.2,0.9c0,0,0,0,0,0c0,0,0,0,0,0s0,0,0,0s0,0,0,0c-0.9,0-1.7-0.3-2.2-0.9C21.4,19.3,21.7,16.4,21.7,16.4z
				 M25,27.1c-2.1,0-4.1-0.8-5.7-2.1c2.7-0.9,3.6-1.9,3.9-2.6c0.5,0.2,1,0.3,1.7,0.3c0,0,0,0,0.1,0c0,0,0,0,0,0c0,0,0,0,0,0
				c0.7,0,1.3-0.2,1.8-0.4c0.3,0.7,1.3,1.9,3.9,2.7C29.2,26.3,27.2,27.1,25,27.1z"/>
		</g>
	</g>
</g>
</svg>
