<?xml version="1.0" encoding="utf-8"?>
<!-- Generator: Adobe Illustrator 19.0.0, SVG Export Plug-In . SVG Version: 6.00 Build 0)  -->
<svg version="1.1" id="Слой_1" xmlns="http://www.w3.org/2000/svg" xmlns:xlink="http://www.w3.org/1999/xlink" x="0px" y="0px"
	 viewBox="0 0 80 40" style="enable-background:new 0 0 80 40;" xml:space="preserve">
<style type="text/css">
	.st0{fill:#107CF6;}
	.st1{fill:#FFFFFF;}
	.st2{fill:none;}
</style>
<path id="XMLID_1_" class="st0" d="M54.8,34.9H25.2c-8.2,0-14.9-6.7-14.9-14.9v0c0-8.2,6.7-14.9,14.9-14.9h29.5
	c8.2,0,14.9,6.7,14.9,14.9v0C69.6,28.2,62.9,34.9,54.8,34.9z"/>
<circle id="XMLID_13_" class="st1" cx="54.6" cy="20" r="13.6"/>
<circle id="XMLID_18_" class="st2" cx="25.5" cy="20" r="13.6"/>
<g id="XMLID_3_">
	<g id="XMLID_4_">
		<path id="XMLID_8_" class="st0" d="M54.9,17.3c-1.7,0-3,1.3-3,3c0,1.7,1.3,3,3,3s3-1.3,3-3C57.9,18.6,56.6,17.3,54.9,17.3z
			 M54.9,22.3c-1.1,0-2-0.9-2-2c0-1.1,0.9-2,2-2c1.1,0,2,0.9,2,2C56.9,21.4,56,22.3,54.9,22.3z"/>
		<path id="XMLID_5_" class="st0" d="M62,15h-2.4c-0.3,0-0.5-0.2-0.5-0.5v-0.2c0-0.8-0.7-1.5-1.5-1.5h-5.3c-0.8,0-1.5,0.7-1.5,1.5
			v0.2c0,0.3-0.2,0.5-0.5,0.5h-2.4c-0.8,0-1.5,0.7-1.5,1.5v8.3c0,0.8,0.7,1.5,1.5,1.5h14.1c0.8,0,1.5-0.7,1.6-1.5v-8.3
			C63.5,15.7,62.8,15,62,15L62,15z M62.4,24.8c0,0.3-0.2,0.5-0.5,0.5H47.8c-0.3,0-0.5-0.2-0.5-0.5v-8.3c0-0.3,0.2-0.5,0.5-0.5h2.3
			c0.8,0,1.5-0.7,1.5-1.5v-0.2c0-0.3,0.2-0.5,0.5-0.5h5.3c0.3,0,0.5,0.2,0.5,0.5v0.2c0,0.8,0.7,1.5,1.5,1.5h2.4
			c0.3,0,0.5,0.2,0.5,0.5L62.4,24.8L62.4,24.8z"/>
	</g>
</g>
<g id="XMLID_14_">
	<g id="XMLID_15_">
		<path id="XMLID_16_" class="st1" d="M31.4,24c-1.8-0.4-2.8-1.1-3.3-1.6c-0.4-0.4-0.5-0.7-0.6-0.8c0.1-0.1,0.2-0.2,0.3-0.3
			c1.5-1.7,1.3-4.6,1.2-4.9c-0.1-2-1-3-1.8-3.5c-0.9-0.5-1.8-0.6-2.1-0.6c0,0-0.1,0-0.1,0c0,0-0.1,0-0.1,0c-0.4,0-1.3,0.1-2.1,0.6
			c-0.8,0.5-1.7,1.5-1.8,3.5c0,0.3-0.3,3.2,1.2,4.9c0.1,0.1,0.3,0.3,0.4,0.4c-0.1,0.3-0.7,1.4-3.9,2.3c-0.2,0-0.3,0.2-0.3,0.3
			s0,0.3,0.1,0.4l0,0c0.8,0.9,1.8,1.6,3,2.1c1.2,0.5,2.4,0.8,3.7,0.8s2.5-0.3,3.7-0.8c1.1-0.5,2.1-1.2,3-2.1
			c0.1-0.1,0.2-0.3,0.1-0.4C31.7,24.2,31.6,24.1,31.4,24z M21.8,16.5C21.8,16.5,21.8,16.5,21.8,16.5c0.1-3,2.4-3.3,3-3.3
			c0,0,0.1,0,0.1,0c0,0,0,0,0,0c0,0,0,0,0.1,0c0.7,0,2.9,0.2,3,3.2c0,0,0,0,0,0c0,0,0.3,2.8-1,4.2c-0.5,0.6-1.2,0.9-2.1,0.9
			c0,0,0,0,0,0c0,0,0,0,0,0s0,0,0,0s0,0,0,0c-0.9,0-1.6-0.3-2.1-0.9C21.6,19.3,21.8,16.6,21.8,16.5z M25,26.7c-2,0-3.9-0.7-5.4-2
			c2.5-0.8,3.4-1.8,3.7-2.4c0.5,0.2,1,0.3,1.6,0.3c0,0,0,0,0.1,0c0,0,0,0,0,0c0,0,0,0,0,0c0.7,0,1.2-0.1,1.7-0.4
			c0.3,0.6,1.3,1.8,3.7,2.5C28.9,26,27.1,26.7,25,26.7z"/>
	</g>
</g>
</svg>
