<?xml version="1.0" encoding="utf-8"?>
<!-- Generator: Adobe Illustrator 19.0.0, SVG Export Plug-In . SVG Version: 6.00 Build 0)  -->
<svg version="1.1" id="Слой_1" xmlns="http://www.w3.org/2000/svg" xmlns:xlink="http://www.w3.org/1999/xlink" x="0px" y="0px"
	 viewBox="-317 194 165 84" style="enable-background:new -317 194 165 84;" xml:space="preserve">
<style type="text/css">
	.st0{fill:#FFFFFF;}
</style>
<g>
	<path id="XMLID_939_" class="st0" d="M-268.2,205c0-2.7,2-4.8,4.6-4.8c2.7,0,4.8,2.1,4.8,4.8c0,2.6-2.1,4.7-4.8,4.7
		C-266.2,209.7-268.2,207.6-268.2,205z M-267.4,224.6c0-0.8,0.8-1.5,1.5-1.5h4.6c0.8,0,1.5,0.8,1.5,1.5v29.6c0,0.8-0.8,1.5-1.5,1.5
		h-4.6c-0.8,0-1.5-0.8-1.5-1.5V224.6z"/>
	<path id="XMLID_937_" class="st0" d="M-241.2,239.1l-10.3-13.8c-0.8-1.1-0.3-2.2,1-2.2h5.3c0.8,0,1.4,0.3,1.9,0.9l6.6,9.4h0.1
		l6.7-9.4c0.4-0.6,1.1-0.9,1.8-0.9h5.4c1.4,0,1.8,1.1,1,2.1L-232,239l10.4,14.7c0.8,1.1,0.3,2.1-1,2.1h-5.1c-0.7,0-1.4-0.4-1.7-1
		l-7.2-10.1h-0.1l-7.3,10.4c-0.3,0.3-0.7,0.7-1.4,0.7h-5.5c-1.4,0-1.7-1.1-1-2.1L-241.2,239.1z"/>
	<path id="XMLID_9_" class="st0" d="M-211.6,229.8h-3.5c-0.9,0-1.5-0.8-1.5-1.5v-3.7c0-0.9,0.7-1.5,1.5-1.5h3.5V214
		c0-0.8,0.8-1.5,1.5-1.5l4.6-0.1c0.8,0,1.4,0.8,1.4,1.5v9.2h8.3c0.9,0,1.5,0.7,1.5,1.5v3.7c0,0.8-0.7,1.5-1.5,1.5h-8.2V246
		c0,2.8,1.1,3.3,2.6,3.3c1.7,0,4.1-1,5-1.4c1.1-0.5,1.5,0,1.8,0.8l1.4,3.6c0.4,0.9,0.1,1.5-0.8,1.9c-0.8,0.5-5.6,2.4-9.6,2.4
		c-6.5,0-8.3-4-8.3-9.8L-211.6,229.8L-211.6,229.8z"/>
	<path id="XMLID_6_" class="st0" d="M-293.1,198.5h-18.7c-0.9,0-1.5,0.8-1.5,1.5v6.7h19.7c5.6,0,10.4,4.2,10.4,9.8
		c0,5.9-4.7,10.4-10.4,10.4h-19.7v27.2c0,0.8,0.7,1.5,1.5,1.5h5.3c0.8,0,1.5-0.8,1.5-1.5V235h12c9.9,0,18.2-8.3,18.2-18.4
		C-274.8,206.7-283.1,198.5-293.1,198.5z"/>
	<path class="st0" d="M-155.6,224.1h-4.6c-0.7,0-1.4,0.1-1.7,0.9l-9.8,21.7h-0.1l-10.1-21.7c-0.2-0.5-0.9-0.9-1.4-0.9h-5.4
		c-1.2,0-1.9,1-1.4,2.1l13.4,27.9c0.5,1,0.5,2.2,0,3.2l-5.3,11.5c-0.5,1.1-0.5,2.4,0.1,3.4l0,0c1.5,2.6,5.3,2.4,6.6-0.3l21.1-45.7
		C-153.7,225.2-154.2,224.1-155.6,224.1z"/>
</g>
</svg>
